<svg xmlns="http://www.w3.org/2000/svg" width="90" height="98" viewBox="0 0 90 98" fill="none"><rect x="90" width="2.64865" height="2.64706" transform="rotate(90 90 0)" fill="#7fc7a1"></rect><rect x="82.0588" width="2.64865" height="2.64706" transform="rotate(90 82.0588 0)" fill="#7fc7a1"></rect><rect x="74.1176" width="2.64865" height="2.64706" transform="rotate(90 74.1176 0)" fill="#7fc7a1"></rect><rect x="66.1764" width="2.64865" height="2.64706" transform="rotate(90 66.1764 0)" fill="#7fc7a1"></rect><rect x="58.2352" width="2.64865" height="2.64706" transform="rotate(90 58.2352 0)" fill="#7fc7a1"></rect><rect x="50.2941" width="2.64865" height="2.64706" transform="rotate(90 50.2941 0)" fill="#7fc7a1"></rect><rect x="42.3529" width="2.64865" height="2.64706" transform="rotate(90 42.3529 0)" fill="#7fc7a1"></rect><rect x="34.4116" width="2.64865" height="2.64706" transform="rotate(90 34.4116 0)" fill="#7fc7a1"></rect><rect x="26.4706" width="2.64865" height="2.64706" transform="rotate(90 26.4706 0)" fill="#7fc7a1"></rect><rect x="18.5294" width="2.64865" height="2.64706" transform="rotate(90 18.5294 0)" fill="#7fc7a1"></rect><rect x="10.5883" width="2.64865" height="2.64706" transform="rotate(90 10.5883 0)" fill="#7fc7a1"></rect><rect x="2.64709" width="2.64865" height="2.64706" transform="rotate(90 2.64709 0)" fill="#7fc7a1"></rect><rect x="90" y="7.94629" width="2.64865" height="2.64706" transform="rotate(90 90 7.94629)" fill="#7fc7a1"></rect><rect x="82.0588" y="7.94629" width="2.64865" height="2.64706" transform="rotate(90 82.0588 7.94629)" fill="#7fc7a1"></rect><rect x="74.1176" y="7.94629" width="2.64865" height="2.64706" transform="rotate(90 74.1176 7.94629)" fill="#7fc7a1"></rect><rect x="66.1764" y="7.94629" width="2.64865" height="2.64706" transform="rotate(90 66.1764 7.94629)" fill="#7fc7a1"></rect><rect x="58.2352" y="7.94629" width="2.64865" height="2.64706" transform="rotate(90 58.2352 7.94629)" fill="#7fc7a1"></rect><rect x="50.2941" y="7.94629" width="2.64865" height="2.64706" transform="rotate(90 50.2941 7.94629)" fill="#7fc7a1"></rect><rect x="42.3529" y="7.94629" width="2.64865" height="2.64706" transform="rotate(90 42.3529 7.94629)" fill="#7fc7a1"></rect><rect x="34.4116" y="7.94629" width="2.64865" height="2.64706" transform="rotate(90 34.4116 7.94629)" fill="#7fc7a1"></rect><rect x="26.4706" y="7.94629" width="2.64865" height="2.64706" transform="rotate(90 26.4706 7.94629)" fill="#7fc7a1"></rect><rect x="18.5294" y="7.94629" width="2.64865" height="2.64706" transform="rotate(90 18.5294 7.94629)" fill="#7fc7a1"></rect><rect x="10.5883" y="7.94629" width="2.64865" height="2.64706" transform="rotate(90 10.5883 7.94629)" fill="#7fc7a1"></rect><rect x="2.64709" y="7.94629" width="2.64865" height="2.64706" transform="rotate(90 2.64709 7.94629)" fill="#7fc7a1"></rect><rect x="90" y="7.94629" width="2.64865" height="2.64706" transform="rotate(90 90 7.94629)" fill="#7fc7a1"></rect><rect x="82.0588" y="7.94629" width="2.64865" height="2.64706" transform="rotate(90 82.0588 7.94629)" fill="#7fc7a1"></rect><rect x="74.1176" y="7.94629" width="2.64865" height="2.64706" transform="rotate(90 74.1176 7.94629)" fill="#7fc7a1"></rect><rect x="66.1764" y="7.94629" width="2.64865" height="2.64706" transform="rotate(90 66.1764 7.94629)" fill="#7fc7a1"></rect><rect x="58.2352" y="7.94629" width="2.64865" height="2.64706" transform="rotate(90 58.2352 7.94629)" fill="#7fc7a1"></rect><rect x="50.2941" y="7.94629" width="2.64865" height="2.64706" transform="rotate(90 50.2941 7.94629)" fill="#7fc7a1"></rect><rect x="42.3529" y="7.94629" width="2.64865" height="2.64706" transform="rotate(90 42.3529 7.94629)" fill="#7fc7a1"></rect><rect x="34.4116" y="7.94629" width="2.64865" height="2.64706" transform="rotate(90 34.4116 7.94629)" fill="#7fc7a1"></rect><rect x="26.4706" y="7.94629" width="2.64865" height="2.64706" transform="rotate(90 26.4706 7.94629)" fill="#7fc7a1"></rect><rect x="18.5294" y="7.94629" width="2.64865" height="2.64706" transform="rotate(90 18.5294 7.94629)" fill="#7fc7a1"></rect><rect x="10.5883" y="7.94629" width="2.64865" height="2.64706" transform="rotate(90 10.5883 7.94629)" fill="#7fc7a1"></rect><rect x="2.64709" y="7.94629" width="2.64865" height="2.64706" transform="rotate(90 2.64709 7.94629)" fill="#7fc7a1"></rect><rect x="90" y="15.8916" width="2.64865" height="2.64706" transform="rotate(90 90 15.8916)" fill="#7fc7a1"></rect><rect x="82.0588" y="15.8916" width="2.64865" height="2.64706" transform="rotate(90 82.0588 15.8916)" fill="#7fc7a1"></rect><rect x="74.1176" y="15.8916" width="2.64865" height="2.64706" transform="rotate(90 74.1176 15.8916)" fill="#7fc7a1"></rect><rect x="66.1764" y="15.8916" width="2.64865" height="2.64706" transform="rotate(90 66.1764 15.8916)" fill="#7fc7a1"></rect><rect x="58.2352" y="15.8916" width="2.64865" height="2.64706" transform="rotate(90 58.2352 15.8916)" fill="#7fc7a1"></rect><rect x="50.2941" y="15.8916" width="2.64865" height="2.64706" transform="rotate(90 50.2941 15.8916)" fill="#7fc7a1"></rect><rect x="42.3529" y="15.8916" width="2.64865" height="2.64706" transform="rotate(90 42.3529 15.8916)" fill="#7fc7a1"></rect><rect x="34.4116" y="15.8916" width="2.64865" height="2.64706" transform="rotate(90 34.4116 15.8916)" fill="#7fc7a1"></rect><rect x="26.4706" y="15.8916" width="2.64865" height="2.64706" transform="rotate(90 26.4706 15.8916)" fill="#7fc7a1"></rect><rect x="18.5294" y="15.8916" width="2.64865" height="2.64706" transform="rotate(90 18.5294 15.8916)" fill="#7fc7a1"></rect><rect x="10.5883" y="15.8916" width="2.64865" height="2.64706" transform="rotate(90 10.5883 15.8916)" fill="#7fc7a1"></rect><rect x="2.64709" y="15.8916" width="2.64865" height="2.64706" transform="rotate(90 2.64709 15.8916)" fill="#7fc7a1"></rect><rect x="90" y="23.8379" width="2.64865" height="2.64706" transform="rotate(90 90 23.8379)" fill="#7fc7a1"></rect><rect x="82.0588" y="23.8379" width="2.64865" height="2.64706" transform="rotate(90 82.0588 23.8379)" fill="#7fc7a1"></rect><rect x="74.1176" y="23.8379" width="2.64865" height="2.64706" transform="rotate(90 74.1176 23.8379)" fill="#7fc7a1"></rect><rect x="66.1764" y="23.8379" width="2.64865" height="2.64706" transform="rotate(90 66.1764 23.8379)" fill="#7fc7a1"></rect><rect x="58.2352" y="23.8379" width="2.64865" height="2.64706" transform="rotate(90 58.2352 23.8379)" fill="#7fc7a1"></rect><rect x="50.2941" y="23.8379" width="2.64865" height="2.64706" transform="rotate(90 50.2941 23.8379)" fill="#7fc7a1"></rect><rect x="42.3529" y="23.8379" width="2.64865" height="2.64706" transform="rotate(90 42.3529 23.8379)" fill="#7fc7a1"></rect><rect x="34.4116" y="23.8379" width="2.64865" height="2.64706" transform="rotate(90 34.4116 23.8379)" fill="#7fc7a1"></rect><rect x="26.4706" y="23.8379" width="2.64865" height="2.64706" transform="rotate(90 26.4706 23.8379)" fill="#7fc7a1"></rect><rect x="18.5294" y="23.8379" width="2.64865" height="2.64706" transform="rotate(90 18.5294 23.8379)" fill="#7fc7a1"></rect><rect x="10.5883" y="23.8379" width="2.64865" height="2.64706" transform="rotate(90 10.5883 23.8379)" fill="#7fc7a1"></rect><rect x="2.64709" y="23.8379" width="2.64865" height="2.64706" transform="rotate(90 2.64709 23.8379)" fill="#7fc7a1"></rect><rect x="90" y="31.7842" width="2.64865" height="2.64706" transform="rotate(90 90 31.7842)" fill="#7fc7a1"></rect><rect x="82.0588" y="31.7842" width="2.64865" height="2.64706" transform="rotate(90 82.0588 31.7842)" fill="#7fc7a1"></rect><rect x="74.1176" y="31.7842" width="2.64865" height="2.64706" transform="rotate(90 74.1176 31.7842)" fill="#7fc7a1"></rect><rect x="66.1764" y="31.7842" width="2.64865" height="2.64706" transform="rotate(90 66.1764 31.7842)" fill="#7fc7a1"></rect><rect x="58.2352" y="31.7842" width="2.64865" height="2.64706" transform="rotate(90 58.2352 31.7842)" fill="#7fc7a1"></rect><rect x="50.2941" y="31.7842" width="2.64865" height="2.64706" transform="rotate(90 50.2941 31.7842)" fill="#7fc7a1"></rect><rect x="42.3529" y="31.7842" width="2.64865" height="2.64706" transform="rotate(90 42.3529 31.7842)" fill="#7fc7a1"></rect><rect x="34.4116" y="31.7842" width="2.64865" height="2.64706" transform="rotate(90 34.4116 31.7842)" fill="#7fc7a1"></rect><rect x="26.4706" y="31.7842" width="2.64865" height="2.64706" transform="rotate(90 26.4706 31.7842)" fill="#7fc7a1"></rect><rect x="18.5294" y="31.7842" width="2.64865" height="2.64706" transform="rotate(90 18.5294 31.7842)" fill="#7fc7a1"></rect><rect x="10.5883" y="31.7842" width="2.64865" height="2.64706" transform="rotate(90 10.5883 31.7842)" fill="#7fc7a1"></rect><rect x="2.64709" y="31.7842" width="2.64865" height="2.64706" transform="rotate(90 2.64709 31.7842)" fill="#7fc7a1"></rect><rect x="90" y="39.7295" width="2.64865" height="2.64706" transform="rotate(90 90 39.7295)" fill="#7fc7a1"></rect><rect x="82.0588" y="39.7295" width="2.64865" height="2.64706" transform="rotate(90 82.0588 39.7295)" fill="#7fc7a1"></rect><rect x="74.1176" y="39.7295" width="2.64865" height="2.64706" transform="rotate(90 74.1176 39.7295)" fill="#7fc7a1"></rect><rect x="66.1764" y="39.7295" width="2.64865" height="2.64706" transform="rotate(90 66.1764 39.7295)" fill="#7fc7a1"></rect><rect x="58.2352" y="39.7295" width="2.64865" height="2.64706" transform="rotate(90 58.2352 39.7295)" fill="#7fc7a1"></rect><rect x="50.2941" y="39.7295" width="2.64865" height="2.64706" transform="rotate(90 50.2941 39.7295)" fill="#7fc7a1"></rect><rect x="42.3529" y="39.7295" width="2.64865" height="2.64706" transform="rotate(90 42.3529 39.7295)" fill="#7fc7a1"></rect><rect x="34.4117" y="39.7295" width="2.64865" height="2.64706" transform="rotate(90 34.4117 39.7295)" fill="#7fc7a1"></rect><rect x="26.4706" y="39.7295" width="2.64865" height="2.64706" transform="rotate(90 26.4706 39.7295)" fill="#7fc7a1"></rect><rect x="18.5294" y="39.7295" width="2.64865" height="2.64706" transform="rotate(90 18.5294 39.7295)" fill="#7fc7a1"></rect><rect x="10.5883" y="39.7295" width="2.64865" height="2.64706" transform="rotate(90 10.5883 39.7295)" fill="#7fc7a1"></rect><rect x="2.64709" y="39.7295" width="2.64865" height="2.64706" transform="rotate(90 2.64709 39.7295)" fill="#7fc7a1"></rect><rect x="90" y="47.6758" width="2.64865" height="2.64706" transform="rotate(90 90 47.6758)" fill="#7fc7a1"></rect><rect x="82.0588" y="47.6758" width="2.64865" height="2.64706" transform="rotate(90 82.0588 47.6758)" fill="#7fc7a1"></rect><rect x="74.1176" y="47.6758" width="2.64865" height="2.64706" transform="rotate(90 74.1176 47.6758)" fill="#7fc7a1"></rect><rect x="66.1764" y="47.6758" width="2.64865" height="2.64706" transform="rotate(90 66.1764 47.6758)" fill="#7fc7a1"></rect><rect x="58.2352" y="47.6758" width="2.64865" height="2.64706" transform="rotate(90 58.2352 47.6758)" fill="#7fc7a1"></rect><rect x="50.2941" y="47.6758" width="2.64865" height="2.64706" transform="rotate(90 50.2941 47.6758)" fill="#7fc7a1"></rect><rect x="42.3529" y="47.6758" width="2.64865" height="2.64706" transform="rotate(90 42.3529 47.6758)" fill="#7fc7a1"></rect><rect x="34.4117" y="47.6758" width="2.64865" height="2.64706" transform="rotate(90 34.4117 47.6758)" fill="#7fc7a1"></rect><rect x="26.4706" y="47.6758" width="2.64865" height="2.64706" transform="rotate(90 26.4706 47.6758)" fill="#7fc7a1"></rect><rect x="18.5294" y="47.6758" width="2.64865" height="2.64706" transform="rotate(90 18.5294 47.6758)" fill="#7fc7a1"></rect><rect x="10.5883" y="47.6758" width="2.64865" height="2.64706" transform="rotate(90 10.5883 47.6758)" fill="#7fc7a1"></rect><rect x="2.64709" y="47.6758" width="2.64865" height="2.64706" transform="rotate(90 2.64709 47.6758)" fill="#7fc7a1"></rect><rect x="90" y="55.6221" width="2.64865" height="2.64706" transform="rotate(90 90 55.6221)" fill="#7fc7a1"></rect><rect x="82.0588" y="55.6221" width="2.64865" height="2.64706" transform="rotate(90 82.0588 55.6221)" fill="#7fc7a1"></rect><rect x="74.1176" y="55.6221" width="2.64865" height="2.64706" transform="rotate(90 74.1176 55.6221)" fill="#7fc7a1"></rect><rect x="66.1764" y="55.6221" width="2.64865" height="2.64706" transform="rotate(90 66.1764 55.6221)" fill="#7fc7a1"></rect><rect x="58.2352" y="55.6221" width="2.64865" height="2.64706" transform="rotate(90 58.2352 55.6221)" fill="#7fc7a1"></rect><rect x="50.2941" y="55.6221" width="2.64865" height="2.64706" transform="rotate(90 50.2941 55.6221)" fill="#7fc7a1"></rect><rect x="42.3529" y="55.6221" width="2.64865" height="2.64706" transform="rotate(90 42.3529 55.6221)" fill="#7fc7a1"></rect><rect x="34.4117" y="55.6221" width="2.64865" height="2.64706" transform="rotate(90 34.4117 55.6221)" fill="#7fc7a1"></rect><rect x="26.4706" y="55.6221" width="2.64865" height="2.64706" transform="rotate(90 26.4706 55.6221)" fill="#7fc7a1"></rect><rect x="18.5294" y="55.6221" width="2.64865" height="2.64706" transform="rotate(90 18.5294 55.6221)" fill="#7fc7a1"></rect><rect x="10.5883" y="55.6221" width="2.64865" height="2.64706" transform="rotate(90 10.5883 55.6221)" fill="#7fc7a1"></rect><rect x="2.64709" y="55.6221" width="2.64865" height="2.64706" transform="rotate(90 2.64709 55.6221)" fill="#7fc7a1"></rect><rect x="90" y="63.5674" width="2.64865" height="2.64706" transform="rotate(90 90 63.5674)" fill="#7fc7a1"></rect><rect x="82.0588" y="63.5674" width="2.64865" height="2.64706" transform="rotate(90 82.0588 63.5674)" fill="#7fc7a1"></rect><rect x="74.1176" y="63.5674" width="2.64865" height="2.64706" transform="rotate(90 74.1176 63.5674)" fill="#7fc7a1"></rect><rect x="66.1764" y="63.5674" width="2.64865" height="2.64706" transform="rotate(90 66.1764 63.5674)" fill="#7fc7a1"></rect><rect x="58.2352" y="63.5674" width="2.64865" height="2.64706" transform="rotate(90 58.2352 63.5674)" fill="#7fc7a1"></rect><rect x="50.2941" y="63.5674" width="2.64865" height="2.64706" transform="rotate(90 50.2941 63.5674)" fill="#7fc7a1"></rect><rect x="42.3529" y="63.5674" width="2.64865" height="2.64706" transform="rotate(90 42.3529 63.5674)" fill="#7fc7a1"></rect><rect x="34.4117" y="63.5674" width="2.64865" height="2.64706" transform="rotate(90 34.4117 63.5674)" fill="#7fc7a1"></rect><rect x="26.4706" y="63.5674" width="2.64865" height="2.64706" transform="rotate(90 26.4706 63.5674)" fill="#7fc7a1"></rect><rect x="18.5294" y="63.5674" width="2.64865" height="2.64706" transform="rotate(90 18.5294 63.5674)" fill="#7fc7a1"></rect><rect x="10.5883" y="63.5674" width="2.64865" height="2.64706" transform="rotate(90 10.5883 63.5674)" fill="#7fc7a1"></rect><rect x="2.64709" y="63.5674" width="2.64865" height="2.64706" transform="rotate(90 2.64709 63.5674)" fill="#7fc7a1"></rect><rect x="90" y="71.5137" width="2.64865" height="2.64706" transform="rotate(90 90 71.5137)" fill="#7fc7a1"></rect><rect x="82.0588" y="71.5137" width="2.64865" height="2.64706" transform="rotate(90 82.0588 71.5137)" fill="#7fc7a1"></rect><rect x="74.1176" y="71.5137" width="2.64865" height="2.64706" transform="rotate(90 74.1176 71.5137)" fill="#7fc7a1"></rect><rect x="66.1764" y="71.5137" width="2.64865" height="2.64706" transform="rotate(90 66.1764 71.5137)" fill="#7fc7a1"></rect><rect x="58.2352" y="71.5137" width="2.64865" height="2.64706" transform="rotate(90 58.2352 71.5137)" fill="#7fc7a1"></rect><rect x="50.2941" y="71.5137" width="2.64865" height="2.64706" transform="rotate(90 50.2941 71.5137)" fill="#7fc7a1"></rect><rect x="42.3529" y="71.5137" width="2.64865" height="2.64706" transform="rotate(90 42.3529 71.5137)" fill="#7fc7a1"></rect><rect x="34.4117" y="71.5137" width="2.64865" height="2.64706" transform="rotate(90 34.4117 71.5137)" fill="#7fc7a1"></rect><rect x="26.4706" y="71.5137" width="2.64865" height="2.64706" transform="rotate(90 26.4706 71.5137)" fill="#7fc7a1"></rect><rect x="18.5294" y="71.5137" width="2.64865" height="2.64706" transform="rotate(90 18.5294 71.5137)" fill="#7fc7a1"></rect><rect x="10.5883" y="71.5137" width="2.64865" height="2.64706" transform="rotate(90 10.5883 71.5137)" fill="#7fc7a1"></rect><rect x="2.64709" y="71.5137" width="2.64865" height="2.64706" transform="rotate(90 2.64709 71.5137)" fill="#7fc7a1"></rect><rect x="90" y="79.459" width="2.64865" height="2.64706" transform="rotate(90 90 79.459)" fill="#7fc7a1"></rect><rect x="82.0588" y="79.459" width="2.64865" height="2.64706" transform="rotate(90 82.0588 79.459)" fill="#7fc7a1"></rect><rect x="74.1176" y="79.459" width="2.64865" height="2.64706" transform="rotate(90 74.1176 79.459)" fill="#7fc7a1"></rect><rect x="66.1764" y="79.459" width="2.64865" height="2.64706" transform="rotate(90 66.1764 79.459)" fill="#7fc7a1"></rect><rect x="58.2352" y="79.459" width="2.64865" height="2.64706" transform="rotate(90 58.2352 79.459)" fill="#7fc7a1"></rect><rect x="50.2941" y="79.459" width="2.64865" height="2.64706" transform="rotate(90 50.2941 79.459)" fill="#7fc7a1"></rect><rect x="42.3529" y="79.459" width="2.64865" height="2.64706" transform="rotate(90 42.3529 79.459)" fill="#7fc7a1"></rect><rect x="34.4117" y="79.459" width="2.64865" height="2.64706" transform="rotate(90 34.4117 79.459)" fill="#7fc7a1"></rect><rect x="26.4706" y="79.459" width="2.64865" height="2.64706" transform="rotate(90 26.4706 79.459)" fill="#7fc7a1"></rect><rect x="18.5294" y="79.459" width="2.64865" height="2.64706" transform="rotate(90 18.5294 79.459)" fill="#7fc7a1"></rect><rect x="10.5883" y="79.459" width="2.64865" height="2.64706" transform="rotate(90 10.5883 79.459)" fill="#7fc7a1"></rect><rect x="2.64709" y="79.459" width="2.64865" height="2.64706" transform="rotate(90 2.64709 79.459)" fill="#7fc7a1"></rect><rect x="90" y="87.4053" width="2.64865" height="2.64706" transform="rotate(90 90 87.4053)" fill="#7fc7a1"></rect><rect x="82.0588" y="87.4053" width="2.64865" height="2.64706" transform="rotate(90 82.0588 87.4053)" fill="#7fc7a1"></rect><rect x="74.1176" y="87.4053" width="2.64865" height="2.64706" transform="rotate(90 74.1176 87.4053)" fill="#7fc7a1"></rect><rect x="66.1764" y="87.4053" width="2.64865" height="2.64706" transform="rotate(90 66.1764 87.4053)" fill="#7fc7a1"></rect><rect x="58.2352" y="87.4053" width="2.64865" height="2.64706" transform="rotate(90 58.2352 87.4053)" fill="#7fc7a1"></rect><rect x="50.2941" y="87.4053" width="2.64865" height="2.64706" transform="rotate(90 50.2941 87.4053)" fill="#7fc7a1"></rect><rect x="42.3529" y="87.4053" width="2.64865" height="2.64706" transform="rotate(90 42.3529 87.4053)" fill="#7fc7a1"></rect><rect x="34.4116" y="87.4053" width="2.64865" height="2.64706" transform="rotate(90 34.4116 87.4053)" fill="#7fc7a1"></rect><rect x="26.4706" y="87.4053" width="2.64865" height="2.64706" transform="rotate(90 26.4706 87.4053)" fill="#7fc7a1"></rect><rect x="18.5294" y="87.4053" width="2.64865" height="2.64706" transform="rotate(90 18.5294 87.4053)" fill="#7fc7a1"></rect><rect x="10.5883" y="87.4053" width="2.64865" height="2.64706" transform="rotate(90 10.5883 87.4053)" fill="#7fc7a1"></rect><rect x="2.64709" y="87.4053" width="2.64865" height="2.64706" transform="rotate(90 2.64709 87.4053)" fill="#7fc7a1"></rect><rect x="90" y="95.3516" width="2.64865" height="2.64706" transform="rotate(90 90 95.3516)" fill="#7fc7a1"></rect><rect x="82.0588" y="95.3516" width="2.64865" height="2.64706" transform="rotate(90 82.0588 95.3516)" fill="#7fc7a1"></rect><rect x="74.1176" y="95.3516" width="2.64865" height="2.64706" transform="rotate(90 74.1176 95.3516)" fill="#7fc7a1"></rect><rect x="66.1764" y="95.3516" width="2.64865" height="2.64706" transform="rotate(90 66.1764 95.3516)" fill="#7fc7a1"></rect><rect x="58.2352" y="95.3516" width="2.64865" height="2.64706" transform="rotate(90 58.2352 95.3516)" fill="#7fc7a1"></rect><rect x="50.2941" y="95.3516" width="2.64865" height="2.64706" transform="rotate(90 50.2941 95.3516)" fill="#7fc7a1"></rect><rect x="42.3529" y="95.3516" width="2.64865" height="2.64706" transform="rotate(90 42.3529 95.3516)" fill="#7fc7a1"></rect><rect x="34.4116" y="95.3516" width="2.64865" height="2.64706" transform="rotate(90 34.4116 95.3516)" fill="#7fc7a1"></rect><rect x="26.4706" y="95.3516" width="2.64865" height="2.64706" transform="rotate(90 26.4706 95.3516)" fill="#7fc7a1"></rect><rect x="18.5294" y="95.3516" width="2.64865" height="2.64706" transform="rotate(90 18.5294 95.3516)" fill="#7fc7a1"></rect><rect x="10.5883" y="95.3516" width="2.64865" height="2.64706" transform="rotate(90 10.5883 95.3516)" fill="#7fc7a1"></rect><rect x="2.64709" y="95.3516" width="2.64865" height="2.64706" transform="rotate(90 2.64709 95.3516)" fill="#7fc7a1"></rect></svg>